<svg width="375" height="812" viewBox="0 0 375 812" fill="none" xmlns="http://www.w3.org/2000/svg">
  <!-- Background -->
  <rect width="375" height="812" fill="#F8FAF5"/>
  
  <!-- Status Bar -->
  <rect width="375" height="44" fill="#4CAF50"/>
  <text x="187" y="30" text-anchor="middle" fill="white" font-family="Inter" font-size="14" font-weight="600">9:41 AM</text>
  
  <!-- Header -->
  <g transform="translate(0, 60)">
    <!-- Back Button -->
    <circle cx="32" cy="32" r="20" fill="white" stroke="#E0E0E0" stroke-width="1"/>
    <text x="32" y="38" text-anchor="middle" fill="#424242" font-family="Inter" font-size="20">←</text>
    
    <!-- Title -->
    <text x="187" y="38" text-anchor="middle" fill="#1B5E20" font-family="Inter" font-size="20" font-weight="700">Lessons</text>
    
    <!-- Filter -->
    <circle cx="343" cy="32" r="20" fill="white" stroke="#E0E0E0" stroke-width="1"/>
    <text x="343" y="38" text-anchor="middle" fill="#424242" font-family="Inter" font-size="20">🔍</text>
  </g>
  
  <!-- Filter Tabs -->
  <g transform="translate(20, 120)">
    <!-- All -->
    <rect x="0" y="0" width="70" height="32" rx="16" fill="#4CAF50"/>
    <text x="35" y="22" text-anchor="middle" fill="white" font-family="Inter" font-size="12" font-weight="600">All</text>
    
    <!-- Vocabulary -->
    <rect x="80" y="0" width="80" height="32" rx="16" fill="white" stroke="#E0E0E0" stroke-width="1"/>
    <text x="120" y="22" text-anchor="middle" fill="#424242" font-family="Inter" font-size="12" font-weight="600">Vocabulary</text>
    
    <!-- Grammar -->
    <rect x="170" y="0" width="70" height="32" rx="16" fill="white" stroke="#E0E0E0" stroke-width="1"/>
    <text x="205" y="22" text-anchor="middle" fill="#424242" font-family="Inter" font-size="12" font-weight="600">Grammar</text>
    
    <!-- Conversation -->
    <rect x="250" y="0" width="100" height="32" rx="16" fill="white" stroke="#E0E0E0" stroke-width="1"/>
    <text x="300" y="22" text-anchor="middle" fill="#424242" font-family="Inter" font-size="12" font-weight="600">Conversation</text>
  </g>
  
  <!-- Lesson List -->
  <g transform="translate(20, 170)">
    <!-- Lesson 1 -->
    <rect x="0" y="0" width="335" height="100" rx="12" fill="white" stroke="#E0E0E0" stroke-width="1"/>
    <rect x="0" y="0" width="4" height="100" rx="2" fill="#4CAF50"/>
    
    <g transform="translate(16, 15)">
      <text x="0" y="0" fill="#1B5E20" font-family="Inter" font-size="16" font-weight="700">At the Airport</text>
      <text x="0" y="25" fill="#757575" font-family="Inter" font-size="12">Airport vocabulary: check-in, security, boarding</text>
      
      <!-- Tags -->
      <g transform="translate(0, 40)">
        <rect x="0" y="0" width="60" height="20" rx="10" fill="#E8F5E8"/>
        <text x="30" y="13" text-anchor="middle" fill="#2E7D32" font-family="Inter" font-size="10" font-weight="600">A1</text>
        
        <rect x="70" y="0" width="80" height="20" rx="10" fill="#E3F2FD"/>
        <text x="110" y="13" text-anchor="middle" fill="#1565C0" font-family="Inter" font-size="10" font-weight="600">15 min</text>
        
        <rect x="160" y="0" width="60" height="20" rx="10" fill="#FFF3E0"/>
        <text x="190" y="13" text-anchor="middle" fill="#E65100" font-family="Inter" font-size="10" font-weight="600">50 XP</text>
      </g>
      
      <!-- Progress -->
      <g transform="translate(0, 70)">
        <text x="0" y="0" fill="#424242" font-family="Inter" font-size="12">Progress</text>
        <rect x="60" y="-5" width="200" height="8" rx="4" fill="#E0E0E0"/>
        <rect x="60" y="-5" width="0" height="8" rx="4" fill="#4CAF50"/>
        <text x="270" y="0" fill="#757575" font-family="Inter" font-size="10">0%</text>
      </g>
    </g>
    
    <!-- Start Button -->
    <rect x="275" y="35" width="40" height="30" rx="6" fill="#4CAF50"/>
    <text x="295" y="53" text-anchor="middle" fill="white" font-family="Inter" font-size="12" font-weight="600">Start</text>
  </g>
  
  <g transform="translate(20, 285)">
    <!-- Lesson 2 -->
    <rect x="0" y="0" width="335" height="100" rx="12" fill="white" stroke="#E0E0E0" stroke-width="1"/>
    <rect x="0" y="0" width="4" height="100" rx="2" fill="#2196F3"/>
    
    <g transform="translate(16, 15)">
      <text x="0" y="0" fill="#1B5E20" font-family="Inter" font-size="16" font-weight="700">Hotel Check-in</text>
      <text x="0" y="25" fill="#757575" font-family="Inter" font-size="12">Checking into hotel: reservation, ID, payment</text>
      
      <!-- Tags -->
      <g transform="translate(0, 40)">
        <rect x="0" y="0" width="60" height="20" rx="10" fill="#E8F5E8"/>
        <text x="30" y="13" text-anchor="middle" fill="#2E7D32" font-family="Inter" font-size="10" font-weight="600">A1</text>
        
        <rect x="70" y="0" width="80" height="20" rx="10" fill="#E3F2FD"/>
        <text x="110" y="13" text-anchor="middle" fill="#1565C0" font-family="Inter" font-size="10" font-weight="600">20 min</text>
        
        <rect x="160" y="0" width="60" height="20" rx="10" fill="#FFF3E0"/>
        <text x="190" y="13" text-anchor="middle" fill="#E65100" font-family="Inter" font-size="10" font-weight="600">75 XP</text>
      </g>
      
      <!-- Progress -->
      <g transform="translate(0, 70)">
        <text x="0" y="0" fill="#424242" font-family="Inter" font-size="12">Progress</text>
        <rect x="60" y="-5" width="200" height="8" rx="4" fill="#E0E0E0"/>
        <rect x="60" y="-5" width="0" height="8" rx="4" fill="#2196F3"/>
        <text x="270" y="0" fill="#757575" font-family="Inter" font-size="10">0%</text>
      </g>
    </g>
    
    <!-- Start Button -->
    <rect x="275" y="35" width="40" height="30" rx="6" fill="#2196F3"/>
    <text x="295" y="53" text-anchor="middle" fill="white" font-family="Inter" font-size="12" font-weight="600">Start</text>
  </g>
  
  <g transform="translate(20, 400)">
    <!-- Lesson 3 -->
    <rect x="0" y="0" width="335" height="100" rx="12" fill="white" stroke="#E0E0E0" stroke-width="1"/>
    <rect x="0" y="0" width="4" height="100" rx="2" fill="#FF9800"/>
    
    <g transform="translate(16, 15)">
      <text x="0" y="0" fill="#1B5E20" font-family="Inter" font-size="16" font-weight="700">Ordering Food</text>
      <text x="0" y="25" fill="#757575" font-family="Inter" font-size="12">Restaurant dialogue: menu, ordering, payment</text>
      
      <!-- Tags -->
      <g transform="translate(0, 40)">
        <rect x="0" y="0" width="60" height="20" rx="10" fill="#E8F5E8"/>
        <text x="30" y="13" text-anchor="middle" fill="#2E7D32" font-family="Inter" font-size="10" font-weight="600">A1</text>
        
        <rect x="70" y="0" width="80" height="20" rx="10" fill="#E3F2FD"/>
        <text x="110" y="13" text-anchor="middle" fill="#1565C0" font-family="Inter" font-size="10" font-weight="600">15 min</text>
        
        <rect x="160" y="0" width="60" height="20" rx="10" fill="#FFF3E0"/>
        <text x="190" y="13" text-anchor="middle" fill="#E65100" font-family="Inter" font-size="10" font-weight="600">60 XP</text>
      </g>
      
      <!-- Progress -->
      <g transform="translate(0, 70)">
        <text x="0" y="0" fill="#424242" font-family="Inter" font-size="12">Progress</text>
        <rect x="60" y="-5" width="200" height="8" rx="4" fill="#E0E0E0"/>
        <rect x="60" y="-5" width="0" height="8" rx="4" fill="#FF9800"/>
        <text x="270" y="0" fill="#757575" font-family="Inter" font-size="10">0%</text>
      </g>
    </g>
    
    <!-- Start Button -->
    <rect x="275" y="35" width="40" height="30" rx="6" fill="#FF9800"/>
    <text x="295" y="53" text-anchor="middle" fill="white" font-family="Inter" font-size="12" font-weight="600">Start</text>
  </g>
  
  <g transform="translate(20, 515)">
    <!-- Lesson 4 -->
    <rect x="0" y="0" width="335" height="100" rx="12" fill="white" stroke="#E0E0E0" stroke-width="1"/>
    <rect x="0" y="0" width="4" height="100" rx="2" fill="#9C27B0"/>
    
    <g transform="translate(16, 15)">
      <text x="0" y="0" fill="#1B5E20" font-family="Inter" font-size="16" font-weight="700">Business Meeting</text>
      <text x="0" y="25" fill="#757575" font-family="Inter" font-size="12">Professional meeting: agenda, presentations</text>
      
      <!-- Tags -->
      <g transform="translate(0, 40)">
        <rect x="0" y="0" width="60" height="20" rx="10" fill="#F3E5F5"/>
        <text x="30" y="13" text-anchor="middle" fill="#6A1B9A" font-family="Inter" font-size="10" font-weight="600">B1</text>
        
        <rect x="70" y="0" width="80" height="20" rx="10" fill="#E3F2FD"/>
        <text x="110" y="13" text-anchor="middle" fill="#1565C0" font-family="Inter" font-size="10" font-weight="600">25 min</text>
        
        <rect x="160" y="0" width="60" height="20" rx="10" fill="#FFF3E0"/>
        <text x="190" y="13" text-anchor="middle" fill="#E65100" font-family="Inter" font-size="10" font-weight="600">100 XP</text>
      </g>
      
      <!-- Lock Badge -->
      <rect x="0" y="65" width="60" height="20" rx="10" fill="#FFC107"/>
      <text x="30" y="78" text-anchor="middle" fill="white" font-family="Inter" font-size="10" font-weight="600">🔒 Locked</text>
    </g>
    
    <!-- Locked Icon -->
    <circle cx="295" cy="50" r="15" fill="#E0E0E0"/>
    <text x="295" y="57" text-anchor="middle" fill="#757575" font-family="Inter" font-size="16">🔒</text>
  </g>
  
  <!-- Bottom Navigation -->
  <g transform="translate(0, 740)">
    <rect width="375" height="72" fill="white" stroke="#E0E0E0" stroke-width="1"/>
    
    <!-- Home -->
    <g transform="translate(47, 16)">
      <text x="0" y="0" text-anchor="middle" fill="#9E9E9E" font-family="Inter" font-size="20">🏠</text>
      <text x="0" y="25" text-anchor="middle" fill="#9E9E9E" font-family="Inter" font-size="10">Home</text>
    </g>
    
    <!-- Lessons -->
    <g transform="translate(130, 16)">
      <text x="0" y="0" text-anchor="middle" fill="#4CAF50" font-family="Inter" font-size="20">📚</text>
      <text x="0" y="25" text-anchor="middle" fill="#4CAF50" font-family="Inter" font-size="10" font-weight="600">Lessons</text>
    </g>
    
    <!-- Progress -->
    <g transform="translate(213, 16)">
      <text x="0" y="0" text-anchor="middle" fill="#9E9E9E" font-family="Inter" font-size="20">📊</text>
      <text x="0" y="25" text-anchor="middle" fill="#9E9E9E" font-family="Inter" font-size="10">Progress</text>
    </g>
    
    <!-- Profile -->
    <g transform="translate(296, 16)">
      <text x="0" y="0" text-anchor="middle" fill="#9E9E9E" font-family="Inter" font-size="20">👤</text>
      <text x="0" y="25" text-anchor="middle" fill="#9E9E9E" font-family="Inter" font-size="10">Profile</text>
    </g>
  </g>
</svg>
